<?xml version="1.0" encoding="UTF-8" standalone="no"?>
<!-- Created with Inkscape (http://www.inkscape.org/) -->

<svg
   xmlns:dc="http://purl.org/dc/elements/1.1/"
   xmlns:cc="http://creativecommons.org/ns#"
   xmlns:rdf="http://www.w3.org/1999/02/22-rdf-syntax-ns#"
   xmlns:svg="http://www.w3.org/2000/svg"
   xmlns="http://www.w3.org/2000/svg"
   xmlns:sodipodi="http://sodipodi.sourceforge.net/DTD/sodipodi-0.dtd"
   xmlns:inkscape="http://www.inkscape.org/namespaces/inkscape"
   width="180"
   height="180"
   viewBox="0 0 180 180"
   id="svg2"
   version="1.1"
   inkscape:version="0.91 r13725"
   sodipodi:docname="orange.svg">
  <defs
     id="defs4" />
  <sodipodi:namedview
     id="base"
     pagecolor="#ffffff"
     bordercolor="#666666"
     borderopacity="1.0"
     inkscape:pageopacity="0.0"
     inkscape:pageshadow="2"
     inkscape:zoom="1.4"
     inkscape:cx="92.217759"
     inkscape:cy="72.276453"
     inkscape:document-units="px"
     inkscape:current-layer="layer1"
     showgrid="false"
     units="px"
     fit-margin-top="0"
     fit-margin-left="0"
     fit-margin-right="0"
     fit-margin-bottom="0"
     inkscape:window-width="1280"
     inkscape:window-height="667"
     inkscape:window-x="-8"
     inkscape:window-y="-8"
     inkscape:window-maximized="1" />
  <metadata
     id="metadata7">
    <rdf:RDF>
      <cc:Work
         rdf:about="">
        <dc:format>image/svg+xml</dc:format>
        <dc:type
           rdf:resource="http://purl.org/dc/dcmitype/StillImage" />
        <dc:title></dc:title>
      </cc:Work>
    </rdf:RDF>
  </metadata>
  <g
     inkscape:label="Layer 1"
     inkscape:groupmode="layer"
     id="layer1"
     transform="translate(-118.57143,-336.64792)">
    <path
       style="color:#000000;font-style:normal;font-variant:normal;font-weight:normal;font-stretch:normal;font-size:medium;line-height:normal;font-family:sans-serif;text-indent:0;text-align:start;text-decoration:none;text-decoration-line:none;text-decoration-style:solid;text-decoration-color:#000000;letter-spacing:normal;word-spacing:normal;text-transform:none;direction:ltr;block-progression:tb;writing-mode:lr-tb;baseline-shift:baseline;text-anchor:start;white-space:normal;clip-rule:nonzero;display:inline;overflow:visible;visibility:visible;opacity:1;isolation:auto;mix-blend-mode:normal;color-interpolation:sRGB;color-interpolation-filters:linearRGB;solid-color:#000000;solid-opacity:1;fill:#000000;fill-opacity:1;fill-rule:nonzero;stroke:none;stroke-width:22.70000076;stroke-linecap:round;stroke-linejoin:miter;stroke-miterlimit:4;stroke-dasharray:none;stroke-dashoffset:0;stroke-opacity:1;color-rendering:auto;image-rendering:auto;shape-rendering:auto;text-rendering:auto;enable-background:accumulate"
       d="m 207.97963,336.23581 c -4.98634,0.0749 -9.37715,2.49858 -12.16797,6.19141 -5.38929,-3.16584 -11.19003,-5.32032 -17.64257,-5.32032 l -48.87891,0 0.1543,11.50391 c 0,0 0.0416,3.13088 0.64257,6.95703 0.60097,3.82615 1.49877,8.69754 4.85743,13.85547 3.41949,5.25137 10.8196,16.79583 25.61328,20.79883 10.958,2.9651 14.44598,3.04687 19.2539,3.04687 l 14.06836,0 c 2.35397,5.58702 7.8768,9.52149 14.33399,9.52149 8.68014,0 15.67904,-7.10599 15.54883,-15.78516 l 0,-35 c 0.12385,-8.76543 -7.01788,-15.90098 -15.78321,-15.76953 z"
       id="path4165"
       inkscape:connector-curvature="0" />
    <path
       style="opacity:1;fill:#f7630c;fill-opacity:1;stroke:none;stroke-width:11.5;stroke-linecap:round;stroke-linejoin:miter;stroke-miterlimit:4;stroke-dasharray:none;stroke-dashoffset:0;stroke-opacity:1"
       d="m 280.7009,437.35095 a 72.73098,72.73098 0 0 1 -72.73098,72.73098 72.73098,72.73098 0 0 1 -72.73098,-72.73098 72.73098,72.73098 0 0 1 72.73098,-72.73098 72.73098,72.73098 0 0 1 72.73098,72.73098 z"
       id="path4147"
       inkscape:connector-curvature="0" />
    <path
       style="color:#000000;font-style:normal;font-variant:normal;font-weight:normal;font-stretch:normal;font-size:medium;line-height:normal;font-family:sans-serif;text-indent:0;text-align:start;text-decoration:none;text-decoration-line:none;text-decoration-style:solid;text-decoration-color:#000000;letter-spacing:normal;word-spacing:normal;text-transform:none;direction:ltr;block-progression:tb;writing-mode:lr-tb;baseline-shift:baseline;text-anchor:start;white-space:normal;clip-rule:nonzero;display:inline;overflow:visible;visibility:visible;opacity:1;isolation:auto;mix-blend-mode:normal;color-interpolation:sRGB;color-interpolation-filters:linearRGB;solid-color:#000000;solid-opacity:1;fill:#000000;fill-opacity:1;fill-rule:nonzero;stroke:none;stroke-width:11.5;stroke-linecap:round;stroke-linejoin:miter;stroke-miterlimit:4;stroke-dasharray:none;stroke-dashoffset:0;stroke-opacity:1;color-rendering:auto;image-rendering:auto;shape-rendering:auto;text-rendering:auto;enable-background:accumulate"
       d="m 207.9707,358.86914 c -43.27574,0 -78.48242,35.20668 -78.48242,78.48242 0,43.27574 35.20668,78.48047 78.48242,78.48047 43.27574,0 78.48047,-35.20473 78.48047,-78.48047 0,-43.27574 -35.20473,-78.48242 -78.48047,-78.48242 z m 0,11.5 c 37.06068,0 66.98047,29.92174 66.98047,66.98242 0,37.06068 -29.91979,66.98047 -66.98047,66.98047 -37.06068,0 -66.98242,-29.91979 -66.98242,-66.98047 0,-37.06068 29.92174,-66.98242 66.98242,-66.98242 z"
       id="circle4149"
       inkscape:connector-curvature="0" />
    <path
       style="opacity:1;fill:#da3b01;fill-opacity:1;stroke:none;stroke-width:11.5;stroke-linecap:round;stroke-linejoin:miter;stroke-miterlimit:4;stroke-dasharray:none;stroke-dashoffset:0;stroke-opacity:1"
       d="m 236.42857,417.80862 a 8.125,8.125 0 0 1 -8.125,8.125 8.125,8.125 0 0 1 -8.125,-8.125 8.125,8.125 0 0 1 8.125,-8.125 8.125,8.125 0 0 1 8.125,8.125 z"
       id="path4151"
       inkscape:connector-curvature="0" />
    <path
       style="opacity:1;fill:#da3b01;fill-opacity:1;stroke:none;stroke-width:11.5;stroke-linecap:round;stroke-linejoin:miter;stroke-miterlimit:4;stroke-dasharray:none;stroke-dashoffset:0;stroke-opacity:1"
       d="m 212.42857,441.80862 a 8.125,8.125 0 0 1 -8.125,8.125 8.125,8.125 0 0 1 -8.125,-8.125 8.125,8.125 0 0 1 8.125,-8.125 8.125,8.125 0 0 1 8.125,8.125 z"
       id="circle4153"
       inkscape:connector-curvature="0" />
    <path
       style="opacity:1;fill:#da3b01;fill-opacity:1;stroke:none;stroke-width:11.5;stroke-linecap:round;stroke-linejoin:miter;stroke-miterlimit:4;stroke-dasharray:none;stroke-dashoffset:0;stroke-opacity:1"
       d="m 258.42857,441.80862 a 8.125,8.125 0 0 1 -8.125,8.125 8.125,8.125 0 0 1 -8.125,-8.125 8.125,8.125 0 0 1 8.125,-8.125 8.125,8.125 0 0 1 8.125,8.125 z"
       id="circle4155"
       inkscape:connector-curvature="0" />
    <path
       style="opacity:1;fill:#da3b01;fill-opacity:1;stroke:none;stroke-width:11.5;stroke-linecap:round;stroke-linejoin:miter;stroke-miterlimit:4;stroke-dasharray:none;stroke-dashoffset:0;stroke-opacity:1"
       d="m 236.42857,463.80862 a 8.125,8.125 0 0 1 -8.125,8.125 8.125,8.125 0 0 1 -8.125,-8.125 8.125,8.125 0 0 1 8.125,-8.125 8.125,8.125 0 0 1 8.125,8.125 z"
       id="circle4157"
       inkscape:connector-curvature="0" />
    <path
       inkscape:connector-curvature="0"
       id="path4167"
       d="m 203.67678,364.24115 c 0,0 -2.77792,-4.41941 -8.90197,-8.90197 -6.12405,-4.48255 -11.17481,-6.88166 -16.60438,-6.88166 -5.42957,0 -37.37564,0 -37.37564,0 0,0 0.12626,9.34391 3.6618,14.77348 3.53553,5.42957 8.33376,13.13198 19.06663,16.03617 10.73287,2.90419 11.11168,2.65165 16.28871,2.65165 5.17703,0 24.62247,0 24.62247,0 z"
       style="opacity:1;fill:#13a10e;fill-opacity:1;stroke:none;stroke-width:22.70000076;stroke-linecap:round;stroke-linejoin:miter;stroke-miterlimit:4;stroke-dasharray:none;stroke-dashoffset:0;stroke-opacity:1" />
    <path
       style="color:#000000;font-style:normal;font-variant:normal;font-weight:normal;font-stretch:normal;font-size:medium;line-height:normal;font-family:sans-serif;text-indent:0;text-align:start;text-decoration:none;text-decoration-line:none;text-decoration-style:solid;text-decoration-color:#000000;letter-spacing:normal;word-spacing:normal;text-transform:none;direction:ltr;block-progression:tb;writing-mode:lr-tb;baseline-shift:baseline;text-anchor:start;white-space:normal;clip-rule:nonzero;display:inline;overflow:visible;visibility:visible;opacity:1;isolation:auto;mix-blend-mode:normal;color-interpolation:sRGB;color-interpolation-filters:linearRGB;solid-color:#000000;solid-opacity:1;fill:#8e562e;fill-opacity:1;fill-rule:nonzero;stroke:none;stroke-width:11.5;stroke-linecap:round;stroke-linejoin:miter;stroke-miterlimit:4;stroke-dasharray:none;stroke-dashoffset:0;stroke-opacity:1;color-rendering:auto;image-rendering:auto;shape-rendering:auto;text-rendering:auto;enable-background:accumulate"
       d="m 208.12695,346.17383 a 5.750575,5.750575 0 0 0 -5.66211,5.83203 l 0,35 a 5.750575,5.750575 0 1 0 11.5,0 l 0,-35 a 5.750575,5.750575 0 0 0 -5.83789,-5.83203 z"
       id="path4161"
       inkscape:connector-curvature="0" />
  </g>
</svg>
