<?xml version="1.0" encoding="UTF-8" standalone="no"?>
<!-- Created with Inkscape (http://www.inkscape.org/) -->

<svg
   xmlns:dc="http://purl.org/dc/elements/1.1/"
   xmlns:cc="http://creativecommons.org/ns#"
   xmlns:rdf="http://www.w3.org/1999/02/22-rdf-syntax-ns#"
   xmlns:svg="http://www.w3.org/2000/svg"
   xmlns="http://www.w3.org/2000/svg"
   xmlns:sodipodi="http://sodipodi.sourceforge.net/DTD/sodipodi-0.dtd"
   xmlns:inkscape="http://www.inkscape.org/namespaces/inkscape"
   width="180"
   height="180"
   viewBox="0 0 180 180"
   id="svg2"
   version="1.1"
   inkscape:version="0.91 r13725"
   sodipodi:docname="banana.svg">
  <defs
     id="defs4" />
  <sodipodi:namedview
     id="base"
     pagecolor="#ffffff"
     bordercolor="#666666"
     borderopacity="1.0"
     inkscape:pageopacity="0.0"
     inkscape:pageshadow="2"
     inkscape:zoom="1"
     inkscape:cx="244.56943"
     inkscape:cy="58.052259"
     inkscape:document-units="px"
     inkscape:current-layer="layer1"
     showgrid="false"
     units="px"
     fit-margin-top="0"
     fit-margin-left="0"
     fit-margin-right="0"
     fit-margin-bottom="0"
     inkscape:window-width="1280"
     inkscape:window-height="667"
     inkscape:window-x="-8"
     inkscape:window-y="-8"
     inkscape:window-maximized="1" />
  <metadata
     id="metadata7">
    <rdf:RDF>
      <cc:Work
         rdf:about="">
        <dc:format>image/svg+xml</dc:format>
        <dc:type
           rdf:resource="http://purl.org/dc/dcmitype/StillImage" />
        <dc:title></dc:title>
      </cc:Work>
    </rdf:RDF>
  </metadata>
  <g
     inkscape:label="Layer 1"
     inkscape:groupmode="layer"
     id="layer1"
     transform="translate(-132.85715,-248.07649)">
    <path
       style="opacity:1;fill:#000000;fill-opacity:1;stroke:none;stroke-width:1;stroke-linecap:round;stroke-linejoin:miter;stroke-miterlimit:4;stroke-dasharray:none;stroke-dashoffset:0;stroke-opacity:1"
       d="m 200.66364,302.94384 c 14.64721,-10.48033 29.87208,-12.18878 43.08637,-9.15307 13.21428,3.03572 23.57143,18.39286 23.92857,31.96429 0.35714,13.57143 -3.21429,21.78572 -9.46429,25.17857 -6.25,3.39286 -12.14285,3.39286 -12.14285,3.39286 0,0 2.44818,4.55455 26.18676,12.63577 23.73859,8.08122 29.29443,9.72272 33.0825,13.8896 3.78807,4.16688 10.98541,14.2684 5.17703,28.66308 -5.80838,14.39467 -15.15229,18.81409 -28.41054,18.81409 -13.25825,0 -31.03575,2.42603 -57.46433,-7.75254 -26.42857,-10.17857 -30.53571,-14.64286 -30.53571,-14.64286 0,0 1.25319,13.05149 -11.75253,18.98613 -13.00571,5.93465 -29.49747,4.22816 -39.14033,-6.12898 -9.64285,-10.35715 -10.71428,-17.67858 -10.71428,-31.78572 0,-14.10714 10,-26.96428 15.53571,-31.07143 -10.88542,-14.9828 -13.4108,-39.22646 -15.17857,-61.95489 -1.76777,-22.72843 0.50508,-33.58757 10.85914,-39.90103 10.35406,-6.31345 18.43528,-8.58629 31.56727,-1.51522 13.13198,7.07106 12.87944,21.46574 15.9099,30.30457 3.03046,8.83884 9.47018,20.07678 9.47018,20.07678 z"
       id="path4155"
       inkscape:connector-curvature="0" />
    <path
       style="opacity:1;fill:#ffd679;fill-opacity:1;stroke:none;stroke-width:1;stroke-linecap:round;stroke-linejoin:miter;stroke-miterlimit:4;stroke-dasharray:none;stroke-dashoffset:0;stroke-opacity:1"
       d="m 200.71429,325.04077 c -12.14285,-16.42857 -16.96428,-28.57142 -20.53571,-41.60714 -3.57143,-13.03571 -4.82143,-20.53571 -12.67857,-22.67857 -7.85715,-2.14286 -14.46429,-1.25 -18.92857,4.10714 -4.46429,5.35715 -5.17858,15.17857 -3.57143,36.42857 1.60714,21.25 6.07143,34.64286 12.14285,47.32143 6.07143,12.67858 11.42858,16.96429 11.42858,16.96429 l 30.35714,-4.28571 z"
       id="path4153"
       inkscape:connector-curvature="0" />
    <path
       style="opacity:1;fill:#d48c00;fill-opacity:1;stroke:none;stroke-width:1;stroke-linecap:round;stroke-linejoin:miter;stroke-miterlimit:4;stroke-dasharray:none;stroke-dashoffset:0;stroke-opacity:1"
       d="m 195.2341,334.38508 c -1.38896,11.99556 -0.3789,20.45508 -0.3789,20.45508 -35.20286,-2.85445 -28.34803,11.78192 -28.34803,11.78192 l 8.1449,8.03253 c 12.12809,13.27261 24.45895,22.70884 43.20508,31.45704 18.75,8.75 36.07088,10.00027 53.03516,10.35742 16.96429,0.35714 22.67941,-0.35632 26.07226,-3.92774 2.73085,-2.87457 4.13876,-6.16091 4.39063,-12.8125 -0.73027,-6.65159 -1.98047,-8.61691 -3.85547,-10.75976 -1.875,-2.14286 -5.03771,-4.07568 -7.31055,-4.70703 -2.27284,-0.63134 -16.1639,-2.90559 -25.50781,-7.83008 -9.34391,-4.92449 -21.83146,-8.86989 -37.88086,-22.85352 -12.75318,-11.11168 -20.30372,-17.32575 -20.30372,-17.32575 z"
       id="path4158"
       inkscape:connector-curvature="0"
       sodipodi:nodetypes="ccccssscsssscc" />
    <path
       style="opacity:1;fill:#ffb900;fill-opacity:1;stroke:none;stroke-width:1;stroke-linecap:round;stroke-linejoin:miter;stroke-miterlimit:4;stroke-dasharray:none;stroke-dashoffset:0;stroke-opacity:1"
       d="m 182.22836,406.16881 c -7.00794,0 -15.76197,-5.48265 -15.76197,-12.67999 0,-7.19733 0.66391,-9.80105 3.577,-14.84667 2.91309,-5.04562 11.0508,-6.62177 21.2959,-6.81566 14.29013,-0.27045 21.07143,-0.0893 21.07143,-0.0893 0,0 10.26786,10.89286 21.60714,16.16072 11.33929,5.26786 34.73215,12.58928 55.35715,12.14286 4.66744,-0.10102 8.63494,-0.20786 11.98027,-0.31269 -0.73027,-6.65159 -1.98027,-8.61588 -3.85527,-10.75873 -1.875,-2.14286 -5.03876,-4.07688 -7.3116,-4.70823 -2.27284,-0.63134 -16.16244,-2.90419 -25.50635,-7.82868 -9.34391,-4.92449 -21.83132,-8.87107 -37.88072,-22.8547 -12.75318,-11.11168 -14.55369,-15.50867 -11.11169,-21.2132 4.27953,-7.09258 10.51153,-8.06192 19.10996,-6.34409 9.83656,1.58206 13.14683,5.98461 11.18254,16.96675 5.89286,-0.22321 9.33036,-4.95535 10,-7.36607 0.66964,-2.41071 3.14407,-17.65127 -6.45238,-25.10114 -9.59645,-7.44988 -27.14785,-7.57615 -35.60788,-2.90419 -8.46003,4.67195 -17.29886,14.77348 -18.68782,26.76904 -1.38896,11.99556 -0.37881,20.45559 -0.37881,20.45559 -9.07332,-0.91463 -26.4624,-0.1568 -38.60525,8.23606 -12.14286,8.39286 -13.21429,24.28571 -11.25,35.17857 1.96428,10.89286 10.53571,17.76786 22.85714,17.85714 12.32143,0.0893 14.19643,-4.10714 14.37121,-9.94339 z"
       id="path4147"
       inkscape:connector-curvature="0"
       sodipodi:nodetypes="cssscsscsssssccsssscsssc" />
    <path
       style="opacity:1;fill:#8e562e;fill-opacity:1;stroke:none;stroke-width:1;stroke-linecap:round;stroke-linejoin:miter;stroke-miterlimit:4;stroke-dasharray:none;stroke-dashoffset:0;stroke-opacity:1"
       d="m 289.46431,399.68362 a 5.1785712,5.1785712 0 0 1 -5.17857,5.17858 5.1785712,5.1785712 0 0 1 -5.17858,-5.17858 5.1785712,5.1785712 0 0 1 5.17858,-5.17857 5.1785712,5.1785712 0 0 1 5.17857,5.17857 z"
       id="path4151" />
  </g>
</svg>
