<?xml version="1.0" encoding="UTF-8" standalone="no"?>
<!-- Created with Inkscape (http://www.inkscape.org/) -->

<svg
   xmlns:dc="http://purl.org/dc/elements/1.1/"
   xmlns:cc="http://creativecommons.org/ns#"
   xmlns:rdf="http://www.w3.org/1999/02/22-rdf-syntax-ns#"
   xmlns:svg="http://www.w3.org/2000/svg"
   xmlns="http://www.w3.org/2000/svg"
   xmlns:sodipodi="http://sodipodi.sourceforge.net/DTD/sodipodi-0.dtd"
   xmlns:inkscape="http://www.inkscape.org/namespaces/inkscape"
   width="180"
   height="180"
   viewBox="0 0 180 180"
   id="svg2"
   version="1.1"
   inkscape:version="0.91 r13725"
   sodipodi:docname="lemon.svg">
  <defs
     id="defs4" />
  <sodipodi:namedview
     id="base"
     pagecolor="#ffffff"
     bordercolor="#666666"
     borderopacity="1.0"
     inkscape:pageopacity="0.0"
     inkscape:pageshadow="2"
     inkscape:zoom="1.4"
     inkscape:cx="71.885771"
     inkscape:cy="58.174118"
     inkscape:document-units="px"
     inkscape:current-layer="layer1"
     showgrid="false"
     units="px"
     fit-margin-top="0"
     fit-margin-left="0"
     fit-margin-right="0"
     fit-margin-bottom="0"
     inkscape:window-width="1280"
     inkscape:window-height="667"
     inkscape:window-x="-8"
     inkscape:window-y="-8"
     inkscape:window-maximized="1" />
  <metadata
     id="metadata7">
    <rdf:RDF>
      <cc:Work
         rdf:about="">
        <dc:format>image/svg+xml</dc:format>
        <dc:type
           rdf:resource="http://purl.org/dc/dcmitype/StillImage" />
        <dc:title></dc:title>
      </cc:Work>
    </rdf:RDF>
  </metadata>
  <g
     inkscape:label="Layer 1"
     inkscape:groupmode="layer"
     id="layer1"
     transform="translate(-87.14286,-350.93362)">
    <path
       style="color:#000000;font-style:normal;font-variant:normal;font-weight:normal;font-stretch:normal;font-size:medium;line-height:normal;font-family:sans-serif;text-indent:0;text-align:start;text-decoration:none;text-decoration-line:none;text-decoration-style:solid;text-decoration-color:#000000;letter-spacing:normal;word-spacing:normal;text-transform:none;direction:ltr;block-progression:tb;writing-mode:lr-tb;baseline-shift:baseline;text-anchor:start;white-space:normal;clip-rule:nonzero;display:inline;overflow:visible;visibility:visible;opacity:1;isolation:auto;mix-blend-mode:normal;color-interpolation:sRGB;color-interpolation-filters:linearRGB;solid-color:#000000;solid-opacity:1;fill:#000000;fill-opacity:1;fill-rule:nonzero;stroke:none;stroke-width:32.79999924;stroke-linecap:round;stroke-linejoin:miter;stroke-miterlimit:4;stroke-dasharray:none;stroke-dashoffset:0;stroke-opacity:1;color-rendering:auto;image-rendering:auto;shape-rendering:auto;text-rendering:auto;enable-background:accumulate"
       d="M 61.494141 1.0859375 C 51.150551 1.0859375 43.742066 6.69729 37.285156 12.03125 C 35.857116 13.210936 34.612154 14.459343 33.496094 15.726562 A 16.40164 16.40164 0 0 0 22.685547 11.648438 A 16.40164 16.40164 0 0 0 11.261719 39.810547 L 32.867188 61.417969 A 16.40164 16.40164 0 0 0 60.048828 55.490234 L 73.109375 55.490234 C 81.701335 55.490234 88.269124 51.472186 93.621094 47.191406 C 98.973064 42.910626 103.13667 38.090441 105.99219 33.144531 C 111.83151 23.030511 111.72852 12.398438 111.72852 12.398438 L 112.21289 1.0859375 L 61.494141 1.0859375 z "
       transform="translate(87.14286,350.93362)"
       id="path4177" />
    <path
       sodipodi:nodetypes="ssssscssssscs"
       inkscape:connector-curvature="0"
       id="path4157"
       d="m 131.7301,378.15137 56.29882,0 c 8.92858,0 31.51786,5.73349 49.10715,23.32277 17.58928,17.58929 18.39285,34.46429 18.39285,43.39286 l 0,52.67857 c 0,7.32143 -4.28571,14.82143 -8.21089,19.28331 0,0 -7.84538,8.32037 -14.41206,8.32037 l -56.29882,0 c -8.92858,0 -31.51786,-5.73349 -49.10715,-23.32277 -17.58928,-17.58929 -18.39285,-34.46429 -18.39285,-43.39286 l 0,-52.67857 c 0,-7.32143 4.28571,-14.82143 8.21089,-19.28331 0,0 7.84538,-8.32037 14.41206,-8.32037 z"
       style="opacity:1;fill:#fce100;fill-opacity:1;stroke:none;stroke-width:10.5;stroke-linecap:round;stroke-linejoin:miter;stroke-miterlimit:4;stroke-dasharray:none;stroke-dashoffset:0;stroke-opacity:1" />
    <path
       style="color:#000000;font-style:normal;font-variant:normal;font-weight:normal;font-stretch:normal;font-size:medium;line-height:normal;font-family:sans-serif;text-indent:0;text-align:start;text-decoration:none;text-decoration-line:none;text-decoration-style:solid;text-decoration-color:#000000;letter-spacing:normal;word-spacing:normal;text-transform:none;direction:ltr;block-progression:tb;writing-mode:lr-tb;baseline-shift:baseline;text-anchor:start;white-space:normal;clip-rule:nonzero;display:inline;overflow:visible;visibility:visible;opacity:1;isolation:auto;mix-blend-mode:normal;color-interpolation:sRGB;color-interpolation-filters:linearRGB;solid-color:#000000;solid-opacity:1;fill:#000000;fill-opacity:1;fill-rule:nonzero;stroke:none;stroke-width:10.5;stroke-linecap:round;stroke-linejoin:miter;stroke-miterlimit:4;stroke-dasharray:none;stroke-dashoffset:0;stroke-opacity:1;color-rendering:auto;image-rendering:auto;shape-rendering:auto;text-rendering:auto;enable-background:accumulate"
       d="m 131.73047,372.90234 c -5.50069,0 -9.6337,2.82846 -12.8125,5.20508 -3.1788,2.37663 -5.41992,4.76172 -5.41992,4.76172 l -0.0625,0.0664 -0.0586,0.0684 c -4.60051,5.22954 -9.51953,13.38174 -9.51953,22.75195 l 0,52.67773 c 0,9.24357 1.20975,28.38553 19.92968,47.10547 9.38757,9.38756 20.03379,15.55639 29.54297,19.41016 9.50918,3.85376 17.68929,5.44922 23.27735,5.44922 l 56.29882,0 c 5.5007,0 9.6337,-2.82845 12.8125,-5.20508 3.17881,-2.37663 5.41993,-4.76367 5.41993,-4.76367 l 0.0606,-0.0645 0.0606,-0.0684 c 4.6005,-5.22955 9.51953,-13.38175 9.51953,-22.75196 l 0,-52.67773 c 0,-9.24357 -1.21171,-28.38553 -19.93164,-47.10547 -9.38767,-9.38756 -20.03194,-15.55639 -29.54112,-19.41016 -9.50918,-3.85376 -17.68929,-5.44922 -23.27734,-5.44922 l -56.29883,0 z m 0,10.5 56.29883,0 c 3.34052,0 10.91905,1.26939 19.33398,4.67969 8.41493,3.4103 17.85882,8.90179 26.06055,17.10352 16.45863,16.45863 16.85547,31.06807 16.85547,39.68164 l 0,52.67773 c 0,5.23951 -3.60555,12.02416 -6.83985,15.73438 -0.0481,0.0506 -1.65705,1.74831 -4.00781,3.50586 -2.38556,1.78356 -5.4594,3.11328 -6.52539,3.11328 l -56.29883,0 c -3.34052,0 -10.91906,-1.26939 -19.33398,-4.67969 -8.41493,-3.4103 -17.85882,-8.90375 -26.06055,-17.10547 -16.45863,-16.45864 -16.85547,-31.06612 -16.85547,-39.67969 l 0,-52.67773 c 0,-5.23951 3.60555,-12.02416 6.83985,-15.73438 0.0481,-0.0506 1.65705,-1.74831 4.00781,-3.50586 2.38556,-1.78355 5.4594,-3.11328 6.52539,-3.11328 z"
       id="path4159"
       inkscape:connector-curvature="0" />
    <path
       style="opacity:1;fill:#dfbe00;fill-opacity:1;stroke:none;stroke-width:10.5;stroke-linecap:round;stroke-linejoin:miter;stroke-miterlimit:4;stroke-dasharray:none;stroke-dashoffset:0;stroke-opacity:1"
       d="m 165.17858,460.39789 a 7.8571424,7.8571424 0 0 1 -7.85714,7.85714 7.8571424,7.8571424 0 0 1 -7.85714,-7.85714 7.8571424,7.8571424 0 0 1 7.85714,-7.85714 7.8571424,7.8571424 0 0 1 7.85714,7.85714 z"
       id="path4161"
       inkscape:connector-curvature="0" />
    <path
       style="opacity:1;fill:#dfbe00;fill-opacity:1;stroke:none;stroke-width:10.5;stroke-linecap:round;stroke-linejoin:miter;stroke-miterlimit:4;stroke-dasharray:none;stroke-dashoffset:0;stroke-opacity:1"
       d="m 193.17858,460.39789 a 7.8571424,7.8571424 0 0 1 -7.85714,7.85714 7.8571424,7.8571424 0 0 1 -7.85714,-7.85714 7.8571424,7.8571424 0 0 1 7.85714,-7.85714 7.8571424,7.8571424 0 0 1 7.85714,7.85714 z"
       id="circle4163"
       inkscape:connector-curvature="0" />
    <path
       style="opacity:1;fill:#dfbe00;fill-opacity:1;stroke:none;stroke-width:10.5;stroke-linecap:round;stroke-linejoin:miter;stroke-miterlimit:4;stroke-dasharray:none;stroke-dashoffset:0;stroke-opacity:1"
       d="m 193.17858,488.39789 a 7.8571424,7.8571424 0 0 1 -7.85714,7.85714 7.8571424,7.8571424 0 0 1 -7.85714,-7.85714 7.8571424,7.8571424 0 0 1 7.85714,-7.85714 7.8571424,7.8571424 0 0 1 7.85714,7.85714 z"
       id="circle4165"
       inkscape:connector-curvature="0" />
    <path
       style="opacity:1;fill:#dfbe00;fill-opacity:1;stroke:none;stroke-width:10.5;stroke-linecap:round;stroke-linejoin:miter;stroke-miterlimit:4;stroke-dasharray:none;stroke-dashoffset:0;stroke-opacity:1"
       d="m 165.17858,488.39789 a 7.8571424,7.8571424 0 0 1 -7.85714,7.85714 7.8571424,7.8571424 0 0 1 -7.85714,-7.85714 7.8571424,7.8571424 0 0 1 7.85714,-7.85714 7.8571424,7.8571424 0 0 1 7.85714,7.85714 z"
       id="circle4167"
       inkscape:connector-curvature="0" />
    <path
       sodipodi:nodetypes="csscssc"
       inkscape:connector-curvature="0"
       id="path4183"
       d="m 123.12954,384.71404 c 0,0 2.39912,-8.5863 8.20749,-13.38452 5.80838,-4.79823 11.61676,-8.46003 17.29887,-8.46003 l 39.39595,0 c 0,0 -0.38517,9.0148 -4.29315,15.78363 -3.90799,6.76884 -14.26841,16.9205 -23.48605,16.9205 -9.21764,0 -31.68717,0 -31.68717,0"
       style="opacity:1;fill:#13a10e;fill-opacity:1;stroke:none;stroke-width:21.70000076;stroke-linecap:round;stroke-linejoin:miter;stroke-miterlimit:4;stroke-dasharray:none;stroke-dashoffset:0;stroke-opacity:1" />
    <path
       style="color:#000000;font-style:normal;font-variant:normal;font-weight:normal;font-stretch:normal;font-size:medium;line-height:normal;font-family:sans-serif;text-indent:0;text-align:start;text-decoration:none;text-decoration-line:none;text-decoration-style:solid;text-decoration-color:#000000;letter-spacing:normal;word-spacing:normal;text-transform:none;direction:ltr;block-progression:tb;writing-mode:lr-tb;baseline-shift:baseline;text-anchor:start;white-space:normal;clip-rule:nonzero;display:inline;overflow:visible;visibility:visible;opacity:1;isolation:auto;mix-blend-mode:normal;color-interpolation:sRGB;color-interpolation-filters:linearRGB;solid-color:#000000;solid-opacity:1;fill:#8e562e;fill-opacity:1;fill-rule:nonzero;stroke:none;stroke-width:10.5;stroke-linecap:round;stroke-linejoin:miter;stroke-miterlimit:4;stroke-dasharray:none;stroke-dashoffset:0;stroke-opacity:1;color-rendering:auto;image-rendering:auto;shape-rendering:auto;text-rendering:auto;enable-background:accumulate"
       d="m 109.94531,373.8457 a 5.250525,5.250525 0 0 0 -3.6582,9.01368 l 21.60742,21.60742 a 5.250525,5.250525 0 1 0 7.42578,-7.42383 l -21.60742,-21.60742 a 5.250525,5.250525 0 0 0 -3.76758,-1.58985 z"
       id="path4175"
       inkscape:connector-curvature="0" />
  </g>
</svg>
