<?xml version="1.0" encoding="UTF-8" standalone="no"?>
<!-- Created with Inkscape (http://www.inkscape.org/) -->

<svg
   xmlns:dc="http://purl.org/dc/elements/1.1/"
   xmlns:cc="http://creativecommons.org/ns#"
   xmlns:rdf="http://www.w3.org/1999/02/22-rdf-syntax-ns#"
   xmlns:svg="http://www.w3.org/2000/svg"
   xmlns="http://www.w3.org/2000/svg"
   xmlns:sodipodi="http://sodipodi.sourceforge.net/DTD/sodipodi-0.dtd"
   xmlns:inkscape="http://www.inkscape.org/namespaces/inkscape"
   width="50.799999mm"
   height="50.799999mm"
   viewBox="0 0 180 180"
   id="svg2"
   version="1.1"
   inkscape:version="0.91 r13725"
   sodipodi:docname="watermelon.svg">
  <defs
     id="defs4" />
  <sodipodi:namedview
     id="base"
     pagecolor="#ffffff"
     bordercolor="#666666"
     borderopacity="1.0"
     inkscape:pageopacity="0.0"
     inkscape:pageshadow="2"
     inkscape:zoom="0.7"
     inkscape:cx="-263.4581"
     inkscape:cy="132.10904"
     inkscape:document-units="px"
     inkscape:current-layer="layer1"
     showgrid="false"
     fit-margin-top="0"
     fit-margin-left="0"
     fit-margin-right="0"
     fit-margin-bottom="0"
     inkscape:window-width="1280"
     inkscape:window-height="667"
     inkscape:window-x="-8"
     inkscape:window-y="-8"
     inkscape:window-maximized="1" />
  <metadata
     id="metadata7">
    <rdf:RDF>
      <cc:Work
         rdf:about="">
        <dc:format>image/svg+xml</dc:format>
        <dc:type
           rdf:resource="http://purl.org/dc/dcmitype/StillImage" />
        <dc:title></dc:title>
      </cc:Work>
    </rdf:RDF>
  </metadata>
  <g
     inkscape:label="Layer 1"
     inkscape:groupmode="layer"
     id="layer1"
     transform="translate(-118.57143,-508.07648)">
    <path
       style="opacity:1;fill:#000000;fill-opacity:1;stroke:none;stroke-width:1;stroke-linecap:round;stroke-linejoin:miter;stroke-miterlimit:4;stroke-dasharray:none;stroke-dashoffset:0;stroke-opacity:1"
       d="m 298.88201,643.12304 c 0,0 -22.98915,26.91773 -50.48915,37.98915 -27.5,11.07143 -68.03572,6.07143 -86.25,-7.67857 -18.21429,-13.75 -39.64286,-38.57143 -42.5,-67.32143 -2.85714,-28.75 4.10714,-55 20.71428,-74.10714 16.60715,-19.10714 23.27947,-24.17397 23.27947,-24.17397 z"
       id="path4155"
       inkscape:connector-curvature="0"
       sodipodi:nodetypes="csssscc" />
    <path
       style="opacity:1;fill:#13a10e;fill-opacity:1;stroke:none;stroke-width:1;stroke-linecap:round;stroke-linejoin:miter;stroke-miterlimit:4;stroke-dasharray:none;stroke-dashoffset:0;stroke-opacity:1"
       d="m 162.51307,525.44192 119.34646,119.34646 c 0,0 -12.39524,16.85953 -37.39524,26.32381 -25,9.46429 -51.07143,6.42858 -70.71429,-4.28571 -19.64286,-10.71429 -42.52113,-35.31237 -43.30928,-67.64342 -0.71429,-29.30111 9.82207,-49.62067 32.07235,-73.74114 z"
       id="path4149"
       inkscape:connector-curvature="0"
       sodipodi:nodetypes="ccsssc" />
    <path
       style="opacity:1;fill:#bad80a;fill-opacity:1;stroke:none;stroke-width:1;stroke-linecap:round;stroke-linejoin:miter;stroke-miterlimit:4;stroke-dasharray:none;stroke-dashoffset:0;stroke-opacity:1"
       d="m 177.98103,540.90988 -7.46079,-7.46079 c 0,0 -18.61378,13.96365 -25.17977,33.40908 -6.56599,19.44544 -5.80837,32.82996 0.25254,50.50763 6.06092,17.67767 17.55687,28.47622 29.58556,37.31782 20.89286,15.35714 44.14516,12.63112 60.82309,7.63397 14.65991,-4.3925 26.01143,-11.36422 37.62819,-25.75889 l -7.75246,-7.75246 c -15.22851,19.11668 -28.28702,23.06356 -44.27025,25.34167 -12.56291,1.7906 -38.76948,-3.14711 -53.39285,-20.17857 -7.49657,-8.73106 -17.86515,-27.30623 -16.07143,-48.39286 1.96428,-23.09174 25.83817,-44.6666 25.83817,-44.6666 z"
       id="path4153"
       inkscape:connector-curvature="0"
       sodipodi:nodetypes="ccssssccsssc" />
    <path
       sodipodi:nodetypes="csssc"
       inkscape:connector-curvature="0"
       id="path4157"
       d="m 265.87739,628.80624 c -15.22851,19.11668 -28.28702,23.06356 -44.27025,25.34167 -12.56291,1.7906 -38.76948,-3.14711 -53.39285,-20.17857 -7.49657,-8.73106 -17.86515,-27.30623 -16.07143,-48.39286 1.96428,-23.09174 25.83817,-44.6666 25.83817,-44.6666 z"
       style="opacity:1;fill:#f03a17;fill-opacity:1;stroke:none;stroke-width:1;stroke-linecap:round;stroke-linejoin:miter;stroke-miterlimit:4;stroke-dasharray:none;stroke-dashoffset:0;stroke-opacity:1" />
    <circle
       style="opacity:1;fill:#000000;fill-opacity:1;stroke:none;stroke-width:1;stroke-linecap:round;stroke-linejoin:miter;stroke-miterlimit:4;stroke-dasharray:none;stroke-dashoffset:0;stroke-opacity:1"
       id="path4159"
       cx="180.82208"
       cy="626.07837"
       r="5.4295697" />
    <circle
       r="5.4295697"
       cy="626.07837"
       cx="214.82208"
       id="circle4161"
       style="opacity:1;fill:#000000;fill-opacity:1;stroke:none;stroke-width:1;stroke-linecap:round;stroke-linejoin:miter;stroke-miterlimit:4;stroke-dasharray:none;stroke-dashoffset:0;stroke-opacity:1" />
    <circle
       style="opacity:1;fill:#000000;fill-opacity:1;stroke:none;stroke-width:1;stroke-linecap:round;stroke-linejoin:miter;stroke-miterlimit:4;stroke-dasharray:none;stroke-dashoffset:0;stroke-opacity:1"
       id="circle4163"
       cx="248.82208"
       cy="626.07837"
       r="5.4295697" />
    <circle
       r="5.4295697"
       cy="592.07837"
       cx="180.82208"
       id="circle4165"
       style="opacity:1;fill:#000000;fill-opacity:1;stroke:none;stroke-width:1;stroke-linecap:round;stroke-linejoin:miter;stroke-miterlimit:4;stroke-dasharray:none;stroke-dashoffset:0;stroke-opacity:1" />
    <circle
       style="opacity:1;fill:#000000;fill-opacity:1;stroke:none;stroke-width:1;stroke-linecap:round;stroke-linejoin:miter;stroke-miterlimit:4;stroke-dasharray:none;stroke-dashoffset:0;stroke-opacity:1"
       id="circle4167"
       cx="214.82208"
       cy="592.07837"
       r="5.4295697" />
    <circle
       style="opacity:1;fill:#000000;fill-opacity:1;stroke:none;stroke-width:1;stroke-linecap:round;stroke-linejoin:miter;stroke-miterlimit:4;stroke-dasharray:none;stroke-dashoffset:0;stroke-opacity:1"
       id="circle4169"
       cx="180.82208"
       cy="564.07837"
       r="5.4295697" />
  </g>
</svg>
