<?xml version="1.0" encoding="UTF-8" standalone="no"?>
<!-- Created with Inkscape (http://www.inkscape.org/) -->

<svg
   xmlns:dc="http://purl.org/dc/elements/1.1/"
   xmlns:cc="http://creativecommons.org/ns#"
   xmlns:rdf="http://www.w3.org/1999/02/22-rdf-syntax-ns#"
   xmlns:svg="http://www.w3.org/2000/svg"
   xmlns="http://www.w3.org/2000/svg"
   xmlns:sodipodi="http://sodipodi.sourceforge.net/DTD/sodipodi-0.dtd"
   xmlns:inkscape="http://www.inkscape.org/namespaces/inkscape"
   width="180"
   height="180"
   viewBox="0 0 180 180"
   id="svg2"
   version="1.1"
   inkscape:version="0.91 r13725"
   sodipodi:docname="brain.svg">
  <defs
     id="defs4" />
  <sodipodi:namedview
     id="base"
     pagecolor="#ffffff"
     bordercolor="#666666"
     borderopacity="1.0"
     inkscape:pageopacity="0.0"
     inkscape:pageshadow="2"
     inkscape:zoom="0.98994949"
     inkscape:cx="315.17197"
     inkscape:cy="27.220952"
     inkscape:document-units="px"
     inkscape:current-layer="layer1"
     showgrid="false"
     units="px"
     inkscape:window-width="1280"
     inkscape:window-height="667"
     inkscape:window-x="-8"
     inkscape:window-y="-8"
     inkscape:window-maximized="1" />
  <metadata
     id="metadata7">
    <rdf:RDF>
      <cc:Work
         rdf:about="">
        <dc:format>image/svg+xml</dc:format>
        <dc:type
           rdf:resource="http://purl.org/dc/dcmitype/StillImage" />
        <dc:title></dc:title>
      </cc:Work>
    </rdf:RDF>
  </metadata>
  <g
     inkscape:label="Layer 1"
     inkscape:groupmode="layer"
     id="layer1"
     transform="translate(0,-872.36216)">
    <path
       sodipodi:nodetypes="sscscscscscscssscscs"
       inkscape:connector-curvature="0"
       id="path4289"
       d="m 110.14246,1021.7803 c 9.42784,0.2148 25.1951,-4.9039 32.05162,-14.7857 3.91685,-5.6448 4.82695,-8.76614 6.06632,-10.88549 4.0885,-4.70324 7.45249,-8.17741 8.833,-14.36993 1.16909,-5.24405 0.75065,-10.79352 -1.76613,-15.33494 0,0 5.23122,-6.10831 5.87401,-15.56032 0.64281,-9.45217 -8.24622,-20.18884 -11.0317,-22.12217 -4.73082,-8.82732 -8.87051,-14.97627 -21.99545,-18.93653 -11.5587,-3.48764 -19.62661,-0.9158 -24.33422,0.75503 -4.949221,-5.10999 -10.25659,-7.13708 -17.978161,-7.55848 -8.881046,-0.4847 -15.693811,2.34438 -22.878187,9.11397 -8.181607,0 -12.894774,1.13203 -18.332862,4.70899 -5.577917,3.66884 -9.05676,8.74037 -10.632666,17.78084 -9.772821,6.77623 -12.537785,11.77223 -14.502965,22.39456 -1.431091,7.73542 -1.342066,22.83285 5.220446,30.96195 6.650514,8.23806 16.050561,10.21523 21.926053,10.84458 6.016074,0.64448 13.521252,0.51871 17.40095,0.74875 2.272659,1.51899 5.132997,5.67559 8.769269,6.73889 3.636258,1.0633 8.693129,0.8918 8.693129,0.8918 7.10187,8.6362 19.189704,14.3994 28.617544,14.6142 z"
       style="opacity:1;fill:#f4abba;fill-opacity:1;fill-rule:nonzero;stroke:none;stroke-width:10;stroke-linecap:round;stroke-linejoin:round;stroke-miterlimit:4;stroke-dasharray:none;stroke-dashoffset:0;stroke-opacity:1" />
    <path
       style="color:#000000;font-style:normal;font-variant:normal;font-weight:normal;font-stretch:normal;font-size:medium;line-height:normal;font-family:sans-serif;text-indent:0;text-align:start;text-decoration:none;text-decoration-line:none;text-decoration-style:solid;text-decoration-color:#000000;letter-spacing:normal;word-spacing:normal;text-transform:none;direction:ltr;block-progression:tb;writing-mode:lr-tb;baseline-shift:baseline;text-anchor:start;white-space:normal;clip-rule:nonzero;display:inline;overflow:visible;visibility:visible;opacity:1;isolation:auto;mix-blend-mode:normal;color-interpolation:sRGB;color-interpolation-filters:linearRGB;solid-color:#000000;solid-opacity:1;fill:#e6808a;fill-opacity:1;fill-rule:nonzero;stroke:none;stroke-width:9.99999905;stroke-linecap:round;stroke-linejoin:round;stroke-miterlimit:4;stroke-dasharray:none;stroke-dashoffset:0;stroke-opacity:1;color-rendering:auto;image-rendering:auto;shape-rendering:auto;text-rendering:auto;enable-background:accumulate"
       d="m 99.022819,904.93382 a 5.0004896,5.0005118 0 0 0 -2.660155,0.91406 c -10.058797,6.90993 -16.589809,20.31841 -16.589809,20.31841 a 5.0004918,5.0005139 0 0 0 8.843732,4.66993 c 0,0 7.105738,-12.41531 13.410123,-16.74613 a 5.0004896,5.0005118 0 0 0 -3.003891,-9.15627 z"
       id="path4275"
       inkscape:connector-curvature="0" />
    <path
       style="color:#000000;font-style:normal;font-variant:normal;font-weight:normal;font-stretch:normal;font-size:medium;line-height:normal;font-family:sans-serif;text-indent:0;text-align:start;text-decoration:none;text-decoration-line:none;text-decoration-style:solid;text-decoration-color:#000000;letter-spacing:normal;word-spacing:normal;text-transform:none;direction:ltr;block-progression:tb;writing-mode:lr-tb;baseline-shift:baseline;text-anchor:start;white-space:normal;clip-rule:nonzero;display:inline;overflow:visible;visibility:visible;opacity:1;isolation:auto;mix-blend-mode:normal;color-interpolation:sRGB;color-interpolation-filters:linearRGB;solid-color:#000000;solid-opacity:1;fill:#e6808a;fill-opacity:1;fill-rule:nonzero;stroke:none;stroke-width:9.99999905;stroke-linecap:round;stroke-linejoin:round;stroke-miterlimit:4;stroke-dasharray:none;stroke-dashoffset:0;stroke-opacity:1;color-rendering:auto;image-rendering:auto;shape-rendering:auto;text-rendering:auto;enable-background:accumulate"
       d="m 57.268993,943.52571 a 5.0004896,5.0005118 0 0 0 -2.695308,9.04885 c 2.437385,1.81303 5.491679,5.53176 7.693345,9.39456 2.201667,3.86279 3.522854,8.08398 3.578118,9.74611 0.168534,5.06907 -1.225731,12.32295 -11.923804,20.31841 a 5.0004896,5.0005118 0 1 0 5.986316,8.00976 c 12.871545,-9.61982 16.191616,-20.83985 15.931608,-28.6602 -0.159006,-4.78234 -2.158232,-9.58357 -4.884755,-14.36722 -2.726523,-4.78366 -6.20713,-9.33705 -10.412089,-12.46487 a 5.0004896,5.0005118 0 0 0 -3.273431,-1.0254 z"
       id="path4277"
       inkscape:connector-curvature="0" />
    <path
       style="color:#000000;font-style:normal;font-variant:normal;font-weight:normal;font-stretch:normal;font-size:medium;line-height:normal;font-family:sans-serif;text-indent:0;text-align:start;text-decoration:none;text-decoration-line:none;text-decoration-style:solid;text-decoration-color:#000000;letter-spacing:normal;word-spacing:normal;text-transform:none;direction:ltr;block-progression:tb;writing-mode:lr-tb;baseline-shift:baseline;text-anchor:start;white-space:normal;clip-rule:nonzero;display:inline;overflow:visible;visibility:visible;opacity:1;isolation:auto;mix-blend-mode:normal;color-interpolation:sRGB;color-interpolation-filters:linearRGB;solid-color:#000000;solid-opacity:1;fill:#e6808a;fill-opacity:1;fill-rule:nonzero;stroke:none;stroke-width:9.99999905;stroke-linecap:round;stroke-linejoin:round;stroke-miterlimit:4;stroke-dasharray:none;stroke-dashoffset:0;stroke-opacity:1;color-rendering:auto;image-rendering:auto;shape-rendering:auto;text-rendering:auto;enable-background:accumulate"
       d="m 81.882226,948.93588 c 0,0 -3.147612,0.0516 -6.812487,0.98633 -3.664875,0.93469 -8.4783,2.68097 -11.316384,7.48244 a 5.0004896,5.0005118 0 1 0 8.607405,5.0879 c 0.59023,-0.99855 2.739835,-2.25811 5.18163,-2.88087 2.441796,-0.62275 4.544913,-0.67968 4.544913,-0.67968 a 5.0004896,5.0005118 0 1 0 -0.205077,-9.99612 z"
       id="path4279"
       inkscape:connector-curvature="0" />
    <path
       style="color:#000000;font-style:normal;font-variant:normal;font-weight:normal;font-stretch:normal;font-size:medium;line-height:normal;font-family:sans-serif;text-indent:0;text-align:start;text-decoration:none;text-decoration-line:none;text-decoration-style:solid;text-decoration-color:#000000;letter-spacing:normal;word-spacing:normal;text-transform:none;direction:ltr;block-progression:tb;writing-mode:lr-tb;baseline-shift:baseline;text-anchor:start;white-space:normal;clip-rule:nonzero;display:inline;overflow:visible;visibility:visible;opacity:1;isolation:auto;mix-blend-mode:normal;color-interpolation:sRGB;color-interpolation-filters:linearRGB;solid-color:#000000;solid-opacity:1;fill:#e6808a;fill-opacity:1;fill-rule:nonzero;stroke:none;stroke-width:9.99999905;stroke-linecap:round;stroke-linejoin:round;stroke-miterlimit:4;stroke-dasharray:none;stroke-dashoffset:0;stroke-opacity:1;color-rendering:auto;image-rendering:auto;shape-rendering:auto;text-rendering:auto;enable-background:accumulate"
       d="m 134.9329,970.40078 a 5.0004896,5.0005118 0 0 0 -1.32226,0.25 c 0,0 -18.48227,5.93545 -33.718683,25.54302 a 5.0004896,5.0005118 0 1 0 7.896463,6.1348 c 13.47565,-17.34167 28.8476,-22.14655 28.8476,-22.14655 a 5.0004896,5.0005118 0 0 0 -1.70312,-9.78127 z"
       id="path4281"
       inkscape:connector-curvature="0" />
    <path
       style="color:#000000;font-style:normal;font-variant:normal;font-weight:normal;font-stretch:normal;font-size:medium;line-height:normal;font-family:sans-serif;text-indent:0;text-align:start;text-decoration:none;text-decoration-line:none;text-decoration-style:solid;text-decoration-color:#000000;letter-spacing:normal;word-spacing:normal;text-transform:none;direction:ltr;block-progression:tb;writing-mode:lr-tb;baseline-shift:baseline;text-anchor:start;white-space:normal;clip-rule:nonzero;display:inline;overflow:visible;visibility:visible;opacity:1;isolation:auto;mix-blend-mode:normal;color-interpolation:sRGB;color-interpolation-filters:linearRGB;solid-color:#000000;solid-opacity:1;fill:#e6808a;fill-opacity:1;fill-rule:nonzero;stroke:none;stroke-width:9.99999905;stroke-linecap:round;stroke-linejoin:round;stroke-miterlimit:4;stroke-dasharray:none;stroke-dashoffset:0;stroke-opacity:1;color-rendering:auto;image-rendering:auto;shape-rendering:auto;text-rendering:auto;enable-background:accumulate"
       d="m 124.34113,945.49447 c -2.43283,-0.0807 -4.96375,-0.0801 -7.58984,0.004 a 5.0005743,5.0005965 0 0 0 0.31836,9.99612 c 19.2739,-0.61669 30.83293,4.43464 34.51556,9.60354 a 5.0004896,5.0005118 0 1 0 8.14452,-5.80275 c -6.152,-8.63487 -18.35882,-13.23585 -35.3886,-13.80081 z"
       id="path4283"
       inkscape:connector-curvature="0" />
    <path
       style="color:#000000;font-style:normal;font-variant:normal;font-weight:normal;font-stretch:normal;font-size:medium;line-height:normal;font-family:sans-serif;text-indent:0;text-align:start;text-decoration:none;text-decoration-line:none;text-decoration-style:solid;text-decoration-color:#000000;letter-spacing:normal;word-spacing:normal;text-transform:none;direction:ltr;block-progression:tb;writing-mode:lr-tb;baseline-shift:baseline;text-anchor:start;white-space:normal;clip-rule:nonzero;display:inline;overflow:visible;visibility:visible;opacity:1;isolation:auto;mix-blend-mode:normal;color-interpolation:sRGB;color-interpolation-filters:linearRGB;solid-color:#000000;solid-opacity:1;fill:#e6808a;fill-opacity:1;fill-rule:nonzero;stroke:none;stroke-width:9.99999905;stroke-linecap:round;stroke-linejoin:round;stroke-miterlimit:4;stroke-dasharray:none;stroke-dashoffset:0;stroke-opacity:1;color-rendering:auto;image-rendering:auto;shape-rendering:auto;text-rendering:auto;enable-background:accumulate"
       d="m 127.65166,930.17802 a 5.0004896,5.0005118 0 0 0 -4.73631,4.19337 c 0,0 -2.50891,12.2662 6.6328,19.95317 a 5.0004896,5.0005118 0 1 0 6.43554,-7.65431 c -4.14299,-3.4837 -3.22266,-10.55277 -3.22266,-10.55277 a 5.0004896,5.0005118 0 0 0 -5.10937,-5.93946 z"
       id="path4285"
       inkscape:connector-curvature="0" />
    <path
       style="opacity:1;fill:#e84757;fill-opacity:1;fill-rule:nonzero;stroke:none;stroke-width:1;stroke-linecap:round;stroke-linejoin:round;stroke-miterlimit:4;stroke-dasharray:none;stroke-dashoffset:0;stroke-opacity:1"
       d="m 146.05123,996.46813 c 0,0 -32.1409,1.07465 -38.3547,1.28945 -6.21381,0.21491 -10.928487,0.2152 -13.071182,2.36322 -2.142685,2.1483 -7.438106,4.7351 -14.937533,4.0907 l -3.963519,2.6499 c 2.956292,0.4004 5.801029,0.3046 5.801029,0.3046 7.101869,8.6363 19.188945,14.4004 28.616775,14.6152 9.42785,0.2149 25.1956,-4.9046 32.05211,-14.7864 2.58852,-3.7304 3.82633,-6.2914 4.75136,-8.2568 l -0.89434,-2.26987 z"
       id="path4287"
       inkscape:connector-curvature="0" />
    <path
       style="color:#000000;font-style:normal;font-variant:normal;font-weight:normal;font-stretch:normal;font-size:medium;line-height:normal;font-family:sans-serif;text-indent:0;text-align:start;text-decoration:none;text-decoration-line:none;text-decoration-style:solid;text-decoration-color:#000000;letter-spacing:normal;word-spacing:normal;text-transform:none;direction:ltr;block-progression:tb;writing-mode:lr-tb;baseline-shift:baseline;text-anchor:start;white-space:normal;clip-rule:nonzero;display:inline;overflow:visible;visibility:visible;opacity:1;isolation:auto;mix-blend-mode:normal;color-interpolation:sRGB;color-interpolation-filters:linearRGB;solid-color:#000000;solid-opacity:1;fill:#000000;fill-opacity:1;fill-rule:nonzero;stroke:none;stroke-width:9.99999905;stroke-linecap:round;stroke-linejoin:round;stroke-miterlimit:4;stroke-dasharray:none;stroke-dashoffset:0;stroke-opacity:1;color-rendering:auto;image-rendering:auto;shape-rendering:auto;text-rendering:auto;enable-background:accumulate"
       d="m 86.13417,897.98849 c -9.413065,-0.51373 -17.570584,2.76981 -24.988232,9.19728 -7.672774,0.21416 -13.564977,1.70722 -19.242148,5.44143 -6.078381,3.998 -10.312035,10.29401 -12.290992,19.12308 -9.082385,6.78051 -13.067464,13.80076 -15.013643,24.32038 -0.824775,4.45812 -1.168144,10.49313 -0.439452,16.8145 0.728693,6.32136 2.460909,12.9642 6.685534,18.19731 7.851371,9.72563 18.866525,11.98853 25.283153,12.67583 5.823416,0.6238 12.199421,0.5968 15.999969,0.7246 0.557652,0.5173 1.171566,1.1019 2.388667,2.2421 1.646764,1.543 3.74844,3.4226 6.912095,4.3478 3.182535,0.9305 5.938716,1.0786 7.912095,1.0918 8.186419,8.8516 20.049802,14.3729 30.687444,14.6152 5.68159,0.1295 12.43546,-1.2472 19.02535,-3.9902 6.58988,-2.743 13.02692,-6.8618 17.24802,-12.9453 4.08286,-5.8843 5.45476,-9.6844 6.17185,-10.99619 3.86315,-4.42093 7.8933,-8.81448 9.49998,-16.02152 1.16021,-5.20421 0.94295,-10.76579 -1.01757,-15.877 1.92622,-3.03179 4.73646,-8.44403 5.23437,-15.76566 0.43596,-6.41052 -2.14613,-12.19857 -4.94335,-16.81254 -2.40547,-3.96776 -4.64395,-6.65554 -7.06249,-8.66408 -4.78231,-8.76936 -10.70329,-16.52607 -24.56636,-20.70904 -10.86047,-3.27697 -19.30649,-1.65812 -24.66596,-0.0312 -5.273303,-4.37078 -11.502107,-6.57924 -18.81833,-6.97853 z m -0.544921,9.98635 c 6.974882,0.38067 10.492025,1.7415 14.658181,6.04298 a 5.0004896,5.0005118 0 0 0 5.26561,1.23438 c 4.5348,-1.60949 10.92487,-3.7851 21.21675,-0.67969 12.033,3.63077 14.41935,7.90276 19.03317,16.51176 a 5.0004896,5.0005118 0 0 0 1.55468,1.74415 c -0.12225,-0.0848 3.19399,3.12583 5.37694,6.72657 2.18296,3.60074 3.72444,7.90759 3.51758,10.94925 -0.52809,7.76538 -4.68164,12.64847 -4.68164,12.64847 a 5.0004896,5.0005118 0 0 0 -0.57616,5.6758 c 1.79358,3.23641 2.21069,7.55677 1.25975,11.82229 -1.09157,4.89643 -3.54695,7.36974 -7.72654,12.17776 a 5.0004896,5.0005118 0 0 0 -0.54297,0.75587 c -1.78085,3.04528 -2.22787,5.32689 -5.85936,10.56057 -2.63544,3.7983 -7.51013,7.1791 -12.87497,9.4122 -5.36484,2.233 -11.20685,3.31 -14.9531,3.2246 -7.48912,-0.1707 -18.843925,-5.4618 -24.871045,-12.7911 a 5.0004896,5.0005118 0 0 0 -4.031242,-1.8223 c 0,0 -4.820346,-0.021 -7.119126,-0.6933 -0.472618,-0.1382 -1.620216,-0.8678 -2.880855,-2.04886 -1.260637,-1.18107 -2.431301,-2.65507 -4.513662,-4.04689 a 5.0004896,5.0005118 0 0 0 -2.482417,-0.83594 c -4.367525,-0.25896 -11.654384,-0.13827 -17.164029,-0.72851 -5.334358,-0.57138 -13.118668,-2.26315 -18.568322,-9.0137 -2.337889,-2.89598 -3.932565,-7.86709 -4.531241,-13.06058 -0.598677,-5.19348 -0.270379,-10.5743 0.335936,-13.85159 1.863579,-10.07316 3.245499,-12.82324 12.435522,-19.19537 a 5.0004896,5.0005118 0 0 0 2.076168,-3.25001 c 1.416454,-8.12575 3.847155,-11.43015 8.455062,-14.46096 4.734585,-3.11422 7.865511,-3.88673 15.585907,-3.88673 a 5.0004896,5.0005118 0 0 0 3.427727,-1.36134 c 6.542173,-6.16446 11.492689,-8.1792 19.177696,-7.75978 z"
       id="path4273"
       inkscape:connector-curvature="0" />
  </g>
</svg>
