<?xml version="1.0" encoding="UTF-8" standalone="no"?>
<!-- Created with Inkscape (http://www.inkscape.org/) -->

<svg
   xmlns:dc="http://purl.org/dc/elements/1.1/"
   xmlns:cc="http://creativecommons.org/ns#"
   xmlns:rdf="http://www.w3.org/1999/02/22-rdf-syntax-ns#"
   xmlns:svg="http://www.w3.org/2000/svg"
   xmlns="http://www.w3.org/2000/svg"
   xmlns:sodipodi="http://sodipodi.sourceforge.net/DTD/sodipodi-0.dtd"
   xmlns:inkscape="http://www.inkscape.org/namespaces/inkscape"
   width="180"
   height="180"
   viewBox="0 0 180 180"
   id="svg2"
   version="1.1"
   inkscape:version="0.91 r13725"
   sodipodi:docname="cherry.svg">
  <defs
     id="defs4" />
  <sodipodi:namedview
     id="base"
     pagecolor="#ffffff"
     bordercolor="#666666"
     borderopacity="1.0"
     inkscape:pageopacity="0.0"
     inkscape:pageshadow="2"
     inkscape:zoom="0.7"
     inkscape:cx="-257.69025"
     inkscape:cy="136.1942"
     inkscape:document-units="px"
     inkscape:current-layer="layer1"
     showgrid="false"
     inkscape:window-width="1280"
     inkscape:window-height="667"
     inkscape:window-x="-8"
     inkscape:window-y="-8"
     inkscape:window-maximized="1"
     fit-margin-top="0"
     fit-margin-left="0"
     fit-margin-right="0"
     fit-margin-bottom="0"
     units="px" />
  <metadata
     id="metadata7">
    <rdf:RDF>
      <cc:Work
         rdf:about="">
        <dc:format>image/svg+xml</dc:format>
        <dc:type
           rdf:resource="http://purl.org/dc/dcmitype/StillImage" />
        <dc:title></dc:title>
      </cc:Work>
    </rdf:RDF>
  </metadata>
  <g
     inkscape:label="Layer 1"
     inkscape:groupmode="layer"
     id="layer1"
     transform="translate(-227.14285,-376.64792)">
    <path
       style="color:#000000;font-style:normal;font-variant:normal;font-weight:normal;font-stretch:normal;font-size:medium;line-height:normal;font-family:sans-serif;text-indent:0;text-align:start;text-decoration:none;text-decoration-line:none;text-decoration-style:solid;text-decoration-color:#000000;letter-spacing:normal;word-spacing:normal;text-transform:none;direction:ltr;block-progression:tb;writing-mode:lr-tb;baseline-shift:baseline;text-anchor:start;white-space:normal;clip-rule:nonzero;display:inline;overflow:visible;visibility:visible;opacity:1;isolation:auto;mix-blend-mode:normal;color-interpolation:sRGB;color-interpolation-filters:linearRGB;solid-color:#000000;solid-opacity:1;fill:#000000;fill-opacity:1;fill-rule:nonzero;stroke:none;stroke-width:18.60000038;stroke-linecap:round;stroke-linejoin:miter;stroke-miterlimit:4;stroke-dasharray:none;stroke-dashoffset:0;stroke-opacity:1;color-rendering:auto;image-rendering:auto;shape-rendering:auto;text-rendering:auto;enable-background:accumulate"
       d="m 271.68191,376.02097 c -0.0267,6e-4 -0.0534,0.001 -0.0801,0.002 -8.66821,0.27346 -15.75941,6.99197 -16.5,15.63281 0,0 -0.0233,1.22952 -0.0391,1.41992 l -0.0195,0 0,0.75391 c -0.0969,1.34547 -0.18512,3.4232 0,8.08398 l 0,65.29297 c -15.77861,7.39476 -26.74414,23.42465 -26.74414,41.96289 0,25.53045 20.78986,46.32227 46.32031,46.32227 18.983,0 35.33803,-11.4979 42.48242,-27.88867 7.36694,15.8502 23.4334,26.8789 42.02344,26.8789 25.53045,0 46.32227,-20.79182 46.32227,-46.32226 0,-25.53045 -20.79182,-46.32031 -46.32227,-46.32031 -6.51325,0 -12.71406,1.36106 -18.34375,3.80078 -1.08411,-0.34039 -2.27553,-0.73745 -3.68555,-1.26367 -3.36616,-1.25628 -7.40431,-3.08459 -11.90429,-5.75782 l 59.14648,0 c 0,0 -0.13376,-8.03353 -0.19531,-11.40039 -0.0493,-1.95305 -0.337,-4.5217 -1.12305,-7.68554 -1.57209,-6.32768 -5.11604,-15.01422 -12.67968,-26.22461 -17.05757,-25.28176 -47.04688,-23.52735 -47.04688,-23.52735 l 0.57227,-0.0176 -34.95899,0 C 287.2743,381.6011 280.00262,375.79959 271.68188,376.021 Z"
       id="path4155"
       inkscape:connector-curvature="0"
       sodipodi:nodetypes="ccccccccsscssscscccssccccc" />
    <path
       style="opacity:1;fill:#107c10;fill-opacity:1;stroke:none;stroke-width:1;stroke-linecap:round;stroke-linejoin:miter;stroke-miterlimit:4;stroke-dasharray:none;stroke-dashoffset:0;stroke-opacity:1"
       d="m 276.51406,399.06412 47.3509,0 c 0,0 24.62246,-1.51523 38.7646,19.44544 14.14214,20.96067 12.12183,30.80965 12.12183,30.80965 0,0 -45.33059,0 -53.15928,0 -7.82868,0 -19.98497,-1.59986 -31.0564,-11.59986 -11.07143,-10 -13.75,-20.89286 -13.75,-20.89286 z"
       id="path4153"
       inkscape:connector-curvature="0" />
    <path
       style="color:#000000;font-style:normal;font-variant:normal;font-weight:normal;font-stretch:normal;font-size:medium;line-height:normal;font-family:sans-serif;text-indent:0;text-align:start;text-decoration:none;text-decoration-line:none;text-decoration-style:solid;text-decoration-color:#000000;letter-spacing:normal;word-spacing:normal;text-transform:none;direction:ltr;block-progression:tb;writing-mode:lr-tb;baseline-shift:baseline;text-anchor:start;white-space:normal;clip-rule:nonzero;display:inline;overflow:visible;visibility:visible;opacity:1;isolation:auto;mix-blend-mode:normal;color-interpolation:sRGB;color-interpolation-filters:linearRGB;solid-color:#000000;solid-opacity:1;fill:#13a10e;fill-opacity:1;fill-rule:nonzero;stroke:none;stroke-width:13.80000019;stroke-linecap:round;stroke-linejoin:round;stroke-miterlimit:4;stroke-dasharray:none;stroke-dashoffset:0;stroke-opacity:1;color-rendering:auto;image-rendering:auto;shape-rendering:auto;text-rendering:auto;enable-background:accumulate"
       d="m 271.92383,386.19531 a 6.9006901,6.9006901 0 0 0 -6.65625,6.3086 c 0,0 -0.009,0.53737 -0.0117,0.57226 l -0.0137,0 0,0.73438 c -0.0638,0.87663 -0.17437,3.00441 0,7.36718 l 0,74.04102 a 6.9006901,6.9006901 0 1 0 13.80078,0 l 0,-27.62305 c 3.20517,5.10553 7.0643,10.109 11.89258,14.74414 14.0988,13.53486 27.64067,20.74402 37.76757,24.52344 10.12691,3.77942 17.41602,4.17774 17.41602,4.17774 a 6.9006901,6.9006901 0 1 0 0.61719,-13.78711 c 0,0 -4.67322,-0.13545 -13.20703,-3.32032 -8.53381,-3.18486 -20.35021,-9.3694 -33.03711,-21.54882 -17.70275,-16.99464 -20.95416,-40.60503 -21.44922,-52 l 0,-7.3086 a 6.9006901,6.9006901 0 0 0 -7.11914,-6.88086 z"
       id="path4151"
       inkscape:connector-curvature="0" />
    <path
       style="opacity:1;fill:#af0d1a;fill-opacity:1;stroke:none;stroke-width:8.80000019;stroke-linecap:round;stroke-linejoin:miter;stroke-miterlimit:4;stroke-dasharray:none;stroke-dashoffset:0;stroke-opacity:1"
       d="m 395.99566,508.16058 a 36.870567,36.870567 0 0 1 -36.87057,36.87057 36.870567,36.870567 0 0 1 -36.87057,-36.87057 36.870567,36.870567 0 0 1 36.87057,-36.87056 36.870567,36.870567 0 0 1 36.87057,36.87056 z"
       id="circle4178" />
    <path
       style="opacity:1;fill:#e84757;fill-opacity:1;stroke:none;stroke-width:34.20000076;stroke-linecap:round;stroke-linejoin:round;stroke-miterlimit:4;stroke-dasharray:none;stroke-dashoffset:0;stroke-opacity:1"
       d="m 377.8979,494.39728 a 10.227795,10.227795 0 0 1 -10.2278,10.22779 10.227795,10.227795 0 0 1 -10.22779,-10.22779 10.227795,10.227795 0 0 1 10.22779,-10.2278 10.227795,10.227795 0 0 1 10.2278,10.2278 z"
       id="path4159" />
    <path
       style="opacity:1;fill:#af0d1a;fill-opacity:1;stroke:none;stroke-width:8.80000019;stroke-linecap:round;stroke-linejoin:miter;stroke-miterlimit:4;stroke-dasharray:none;stroke-dashoffset:0;stroke-opacity:1"
       d="M 310.98549,509.17072 A 36.36549,36.36549 0 0 1 274.62,545.53621 36.36549,36.36549 0 0 1 238.25451,509.17072 36.36549,36.36549 0 0 1 274.62,472.80523 a 36.36549,36.36549 0 0 1 36.36549,36.36549 z"
       id="circle4176" />
    <path
       style="opacity:1;fill:#e84757;fill-opacity:1;stroke:none;stroke-width:34.20000076;stroke-linecap:round;stroke-linejoin:round;stroke-miterlimit:4;stroke-dasharray:none;stroke-dashoffset:0;stroke-opacity:1"
       d="m 293.92897,494.01846 a 10.227795,10.227795 0 0 1 -10.2278,10.2278 10.227795,10.227795 0 0 1 -10.22779,-10.2278 10.227795,10.227795 0 0 1 10.22779,-10.22779 10.227795,10.227795 0 0 1 10.2278,10.22779 z"
       id="path4159-5" />
  </g>
</svg>
