<?xml version="1.0" encoding="UTF-8" standalone="no"?>
<!-- Created with Inkscape (http://www.inkscape.org/) -->

<svg
   xmlns:dc="http://purl.org/dc/elements/1.1/"
   xmlns:cc="http://creativecommons.org/ns#"
   xmlns:rdf="http://www.w3.org/1999/02/22-rdf-syntax-ns#"
   xmlns:svg="http://www.w3.org/2000/svg"
   xmlns="http://www.w3.org/2000/svg"
   xmlns:sodipodi="http://sodipodi.sourceforge.net/DTD/sodipodi-0.dtd"
   xmlns:inkscape="http://www.inkscape.org/namespaces/inkscape"
   width="180"
   height="180"
   viewBox="0 0 180 180"
   id="svg2"
   version="1.1"
   inkscape:version="0.91 r13725"
   sodipodi:docname="pumpkin.svg">
  <defs
     id="defs4" />
  <sodipodi:namedview
     id="base"
     pagecolor="#ffffff"
     bordercolor="#666666"
     borderopacity="1.0"
     inkscape:pageopacity="0.0"
     inkscape:pageshadow="2"
     inkscape:zoom="0.98994949"
     inkscape:cx="286.18281"
     inkscape:cy="25.799347"
     inkscape:document-units="px"
     inkscape:current-layer="layer1"
     showgrid="false"
     units="px"
     inkscape:window-width="1280"
     inkscape:window-height="667"
     inkscape:window-x="-8"
     inkscape:window-y="-8"
     inkscape:window-maximized="1" />
  <metadata
     id="metadata7">
    <rdf:RDF>
      <cc:Work
         rdf:about="">
        <dc:format>image/svg+xml</dc:format>
        <dc:type
           rdf:resource="http://purl.org/dc/dcmitype/StillImage" />
        <dc:title></dc:title>
      </cc:Work>
    </rdf:RDF>
  </metadata>
  <g
     inkscape:label="Layer 1"
     inkscape:groupmode="layer"
     id="layer1"
     transform="translate(0,-872.36216)">
    <path
       style="opacity:1;fill:#000000;fill-opacity:1;fill-rule:nonzero;stroke:none;stroke-width:0.99999994;stroke-linecap:round;stroke-linejoin:round;stroke-miterlimit:4;stroke-dasharray:none;stroke-dashoffset:0;stroke-opacity:0.56969694"
       d="m 111.93978,915.55122 0,-23.98106 -77.795115,1.81943 c 0,14.19186 0.419204,23.60852 6.095167,29.22651 6.047615,5.98587 9.029526,6.1589 9.029526,6.1589"
       id="path4207"
       inkscape:connector-curvature="0"
       sodipodi:nodetypes="cccsc" />
    <path
       sodipodi:nodetypes="csccscc"
       inkscape:connector-curvature="0"
       id="path4217"
       d="m 99.777851,916.59753 c 35.681849,-3e-5 58.088639,24.9729 58.088639,55.77859 0,30.80578 -22.40679,55.77878 -58.088639,55.77858 l -19.556868,0 c -35.681679,0 -58.088478,-24.973 -58.088478,-55.77858 0,-30.80563 22.406799,-55.77853 58.088478,-55.77859 z"
       style="opacity:1;fill:#f7630c;fill-opacity:1;fill-rule:nonzero;stroke:none;stroke-width:10;stroke-linecap:round;stroke-linejoin:round;stroke-miterlimit:4;stroke-dasharray:none;stroke-dashoffset:0;stroke-opacity:1" />
    <path
       style="opacity:1;fill:#000000;fill-opacity:1;fill-rule:nonzero;stroke:none;stroke-width:0.99999994;stroke-linecap:round;stroke-linejoin:round;stroke-miterlimit:4;stroke-dasharray:none;stroke-dashoffset:0;stroke-opacity:0.56969694"
       d="m 53.912426,957.56063 22.263382,0 c 0,0 -0.145048,-3.34778 -1.60073,-6.54998 -1.455033,-3.20223 -5.529381,-9.75218 -6.256896,-11.78995 -0.727679,-2.03777 -1.018588,-4.80332 -1.018588,-4.80332 0,0 -7.857789,5.96776 -10.185871,11.93551 -2.56358,5.02642 -3.71874,9.13768 -3.201297,11.20774 z"
       id="path4209"
       inkscape:connector-curvature="0"
       sodipodi:nodetypes="ccccccc" />
    <path
       style="opacity:1;fill:#000000;fill-opacity:1;fill-rule:nonzero;stroke:none;stroke-width:0.99999994;stroke-linecap:round;stroke-linejoin:round;stroke-miterlimit:4;stroke-dasharray:none;stroke-dashoffset:0;stroke-opacity:0.56969694"
       d="m 104.84178,957.99728 22.40891,0 c 0,-2.87114 -4.51095,-11.87092 -7.1301,-16.4477 -2.61931,-4.80332 -6.69367,-8.15108 -6.69367,-8.15108 0,0 -1.16412,5.23996 -2.91023,9.46108 -1.74609,4.22108 -4.94738,9.02439 -5.384,10.77105 -0.43644,1.74667 -0.29091,4.36665 -0.29091,4.36665 z"
       id="path4211"
       inkscape:connector-curvature="0"
       sodipodi:nodetypes="ccccscc" />
    <path
       style="opacity:1;fill:#000000;fill-opacity:1;fill-rule:nonzero;stroke:none;stroke-width:0.99999994;stroke-linecap:round;stroke-linejoin:round;stroke-miterlimit:4;stroke-dasharray:none;stroke-dashoffset:0;stroke-opacity:0.56969694"
       d="m 81.792215,972.67343 17.080318,0 c 0,0 -1.131857,-4.73445 -2.160875,-6.99876 -1.028852,-2.2643 -2.983887,-5.24908 -3.601224,-7.51337 -0.617349,-2.2643 -1.028858,-5.96954 -1.028858,-5.96954 0,0 -5.204896,4.07858 -7.159931,8.60718 -1.954876,4.52861 -3.12943,8.88973 -3.12943,11.87449 z"
       id="path4213"
       inkscape:connector-curvature="0"
       sodipodi:nodetypes="cccsccc" />
    <path
       style="opacity:1;fill:#000000;fill-opacity:1;fill-rule:nonzero;stroke:none;stroke-width:0.99999994;stroke-linecap:round;stroke-linejoin:round;stroke-miterlimit:4;stroke-dasharray:none;stroke-dashoffset:0;stroke-opacity:0.56969694"
       d="m 54.217024,976.89326 9.260342,0 c 0,0 2.675217,6.69 4.115746,9.26307 1.440363,2.57306 3.498234,4.9403 4.733087,4.73445 1.234691,-0.20584 3.395401,-4.5286 4.835926,-7.10168 1.440527,-2.57308 3.909908,-6.99876 3.909908,-6.99876 l 18.676808,0 c 0,0 2.182709,6.82463 3.637749,9.00794 1.45519,2.18334 3.34683,5.02165 5.02025,5.09443 1.67341,0.0726 4.84146,-4.23387 6.2238,-7.21775 1.38236,-2.98389 2.50688,-6.39164 2.50688,-6.39164 l 9.02175,0 c 0,0 -1.38235,14.91939 -7.05726,22.77928 -5.67509,7.86 -12.36859,12.3722 -16.00649,12.9546 -3.637749,0.5821 -5.674923,-0.2912 -7.421024,-5.8223 -1.746266,-5.5311 -4.510952,-5.9678 -5.529541,-5.9678 -1.018589,0 -3.928816,3.0566 -5.092935,5.9678 -1.16412,2.9112 -3.201298,6.4044 -5.092935,6.4044 -1.891639,0 -10.040336,-3.6388 -15.715252,-9.8977 -5.675079,-6.25892 -9.576676,-18.68343 -10.026809,-26.80834 z"
       id="path4215"
       inkscape:connector-curvature="0"
       sodipodi:nodetypes="ccccsccccsccsccssssc" />
    <path
       style="color:#000000;font-style:normal;font-variant:normal;font-weight:normal;font-stretch:normal;font-size:medium;line-height:normal;font-family:sans-serif;text-indent:0;text-align:start;text-decoration:none;text-decoration-line:none;text-decoration-style:solid;text-decoration-color:#000000;letter-spacing:normal;word-spacing:normal;text-transform:none;direction:ltr;block-progression:tb;writing-mode:lr-tb;baseline-shift:baseline;text-anchor:start;white-space:normal;clip-rule:nonzero;display:inline;overflow:visible;visibility:visible;opacity:1;isolation:auto;mix-blend-mode:normal;color-interpolation:sRGB;color-interpolation-filters:linearRGB;solid-color:#000000;solid-opacity:1;fill:#000000;fill-opacity:1;fill-rule:nonzero;stroke:none;stroke-width:10;stroke-linecap:round;stroke-linejoin:round;stroke-miterlimit:4;stroke-dasharray:none;stroke-dashoffset:0;stroke-opacity:1;color-rendering:auto;image-rendering:auto;shape-rendering:auto;text-rendering:auto;enable-background:accumulate"
       d="M 80.220729,911.59763 C 42.20613,911.59769 17.133,939.1467 17.133,972.37687 c 0,33.23013 25.07312,60.77733 63.087729,60.77733 l 19.556592,0 c 38.014779,2e-4 63.089679,-27.547 63.089679,-60.77733 0,-33.23022 -25.07492,-60.77928 -63.089679,-60.77924 l -19.556592,0 z m 0,9.99999 19.556592,0 c 33.348939,-3e-5 53.089709,22.3981 53.089709,50.77925 0,28.38123 -19.74079,50.77753 -53.089709,50.77733 l -19.556592,0 c -33.348748,0 -53.087754,-22.3963 -53.087754,-50.77733 0,-28.38109 19.738996,-50.7792 53.087754,-50.77925 z"
       id="path4198"
       inkscape:connector-curvature="0" />
    <path
       style="opacity:1;fill:#8e562e;fill-opacity:1;fill-rule:nonzero;stroke:none;stroke-width:0.99999994;stroke-linecap:round;stroke-linejoin:round;stroke-miterlimit:4;stroke-dasharray:none;stroke-dashoffset:0;stroke-opacity:0.56969694"
       d="m 86.797854,899.48419 17.461786,0 0,17.61215 c -0.0893,5.37625 -2.11486,10.4753 -9.425162,10.73249 -8.051226,0.28325 -8.763869,-13.35249 -8.763869,-13.35249 l 0.727245,-4.92562 z"
       id="path4205"
       inkscape:connector-curvature="0"
       sodipodi:nodetypes="cccsccc" />
    <path
       style="opacity:1;fill:#13a10e;fill-opacity:1;fill-rule:nonzero;stroke:none;stroke-width:0.99999994;stroke-linecap:round;stroke-linejoin:round;stroke-miterlimit:4;stroke-dasharray:none;stroke-dashoffset:0;stroke-opacity:1"
       d="m 56.428422,923.1618 c 9.539126,5.11278 25.50562,4.85122 38.227754,4.85122 0,0 0.688242,-10.80779 -7.845372,-18.97676 -8.849135,-8.47115 -17.025527,-8.56097 -45.359656,-8.56097 0.142183,10.27314 1.37695,15.39701 14.977274,22.68651 z"
       id="path4203"
       inkscape:connector-curvature="0"
       sodipodi:nodetypes="scscs" />
  </g>
</svg>
