<?xml version="1.0" encoding="UTF-8" standalone="no"?>
<!-- Created with Inkscape (http://www.inkscape.org/) -->

<svg
   xmlns:dc="http://purl.org/dc/elements/1.1/"
   xmlns:cc="http://creativecommons.org/ns#"
   xmlns:rdf="http://www.w3.org/1999/02/22-rdf-syntax-ns#"
   xmlns:svg="http://www.w3.org/2000/svg"
   xmlns="http://www.w3.org/2000/svg"
   xmlns:sodipodi="http://sodipodi.sourceforge.net/DTD/sodipodi-0.dtd"
   xmlns:inkscape="http://www.inkscape.org/namespaces/inkscape"
   width="180"
   height="180"
   viewBox="0 0 180 180"
   id="svg2"
   version="1.1"
   inkscape:version="0.91 r13725"
   sodipodi:docname="tooth.svg">
  <defs
     id="defs4" />
  <sodipodi:namedview
     id="base"
     pagecolor="#ffffff"
     bordercolor="#666666"
     borderopacity="1.0"
     inkscape:pageopacity="0.0"
     inkscape:pageshadow="2"
     inkscape:zoom="0.98994949"
     inkscape:cx="234.45357"
     inkscape:cy="66.554571"
     inkscape:document-units="px"
     inkscape:current-layer="layer1"
     showgrid="false"
     units="px"
     inkscape:window-width="1280"
     inkscape:window-height="667"
     inkscape:window-x="-8"
     inkscape:window-y="-8"
     inkscape:window-maximized="1" />
  <metadata
     id="metadata7">
    <rdf:RDF>
      <cc:Work
         rdf:about="">
        <dc:format>image/svg+xml</dc:format>
        <dc:type
           rdf:resource="http://purl.org/dc/dcmitype/StillImage" />
        <dc:title></dc:title>
      </cc:Work>
    </rdf:RDF>
  </metadata>
  <g
     inkscape:label="Layer 1"
     inkscape:groupmode="layer"
     id="layer1"
     transform="translate(0,-872.36216)">
    <path
       style="opacity:1;fill:#f2f2f2;fill-opacity:1;fill-rule:nonzero;stroke:none;stroke-width:10;stroke-linecap:round;stroke-linejoin:round;stroke-miterlimit:4;stroke-dasharray:none;stroke-dashoffset:0;stroke-opacity:1"
       d="m 113.11823,1026.007 c 14.01556,0 20.48427,-24.9883 21.83193,-31.16826 1.34764,-6.17988 -0.26953,-20.15181 1.8867,-27.13777 2.15624,-6.98598 7.81637,-22.57005 8.0859,-33.85507 0.26953,-11.28502 0,-22.30135 -11.32026,-29.55601 -11.32026,-7.25466 -25.33581,-6.98597 -30.99593,-3.22429 -5.660132,3.76166 -11.32026,4.83643 -12.937441,4.29905 -1.617182,-0.53739 -12.667911,-6.1799 -24.257694,-6.1799 -11.589783,0 -23.449093,4.83645 -27.492055,15.0467 -4.042946,10.21026 -2.96482,27.40648 -0.539055,35.19852 2.425765,7.79203 7.277307,18.53968 7.00778,30.89947 -0.269528,12.35977 4.042947,29.82486 10.24213,38.42296 6.199198,8.5981 12.937437,8.3294 16.171801,6.7173 3.234363,-1.6123 5.121071,-4.5679 5.929655,-13.7033 0.808584,-9.1356 -0.539055,-16.65897 4.042947,-23.64493 4.582017,-6.98596 15.63273,-2.68691 16.980383,-1.07477 1.347656,1.61216 5.390609,2.14953 4.851549,16.9275 -0.53906,14.7782 4.04295,22.0328 10.51166,22.0328 z"
       id="path4169"
       inkscape:connector-curvature="0"
       sodipodi:nodetypes="ssssssssssssssssss" />
    <path
       style="color:#000000;font-style:normal;font-variant:normal;font-weight:normal;font-stretch:normal;font-size:medium;line-height:normal;font-family:sans-serif;text-indent:0;text-align:start;text-decoration:none;text-decoration-line:none;text-decoration-style:solid;text-decoration-color:#000000;letter-spacing:normal;word-spacing:normal;text-transform:none;direction:ltr;block-progression:tb;writing-mode:lr-tb;baseline-shift:baseline;text-anchor:start;white-space:normal;clip-rule:nonzero;display:inline;overflow:visible;visibility:visible;opacity:1;isolation:auto;mix-blend-mode:normal;color-interpolation:sRGB;color-interpolation-filters:linearRGB;solid-color:#000000;solid-opacity:1;fill:#a6a6a6;fill-opacity:1;fill-rule:nonzero;stroke:none;stroke-width:10;stroke-linecap:round;stroke-linejoin:round;stroke-miterlimit:4;stroke-dasharray:none;stroke-dashoffset:0;stroke-opacity:1;color-rendering:auto;image-rendering:auto;shape-rendering:auto;text-rendering:auto;enable-background:accumulate"
       d="m 41.803132,956.72922 a 5.0004859,5.0005097 0 0 0 -4.759751,6.48635 c 4.004156,13.52741 15.001911,18.55862 15.001911,18.55862 a 5.0004859,5.0005097 0 1 0 3.97655,-9.1758 c 0,0 -6.533652,-2.56898 -9.390598,-12.22072 a 5.0004859,5.0005097 0 0 0 -4.828112,-3.64845 z"
       id="path4171"
       inkscape:connector-curvature="0" />
    <path
       style="color:#000000;font-style:normal;font-variant:normal;font-weight:normal;font-stretch:normal;font-size:medium;line-height:normal;font-family:sans-serif;text-indent:0;text-align:start;text-decoration:none;text-decoration-line:none;text-decoration-style:solid;text-decoration-color:#000000;letter-spacing:normal;word-spacing:normal;text-transform:none;direction:ltr;block-progression:tb;writing-mode:lr-tb;baseline-shift:baseline;text-anchor:start;white-space:normal;clip-rule:nonzero;display:inline;overflow:visible;visibility:visible;opacity:1;isolation:auto;mix-blend-mode:normal;color-interpolation:sRGB;color-interpolation-filters:linearRGB;solid-color:#000000;solid-opacity:1;fill:#a6a6a6;fill-opacity:1;fill-rule:nonzero;stroke:none;stroke-width:10;stroke-linecap:round;stroke-linejoin:round;stroke-miterlimit:4;stroke-dasharray:none;stroke-dashoffset:0;stroke-opacity:1;color-rendering:auto;image-rendering:auto;shape-rendering:auto;text-rendering:auto;enable-background:accumulate"
       d="m 135.48841,965.47143 a 5.0004859,5.0005097 0 0 0 -4.18748,2.04882 c -3.97236,5.28 -9.06443,8.72268 -9.06443,8.72268 a 5.0004859,5.0005097 0 1 0 5.53514,8.32815 c 0,0 6.3437,-4.15756 11.5195,-11.03713 a 5.0004859,5.0005097 0 0 0 -3.80273,-8.06252 z"
       id="path4173"
       inkscape:connector-curvature="0" />
    <path
       style="color:#000000;font-style:normal;font-variant:normal;font-weight:normal;font-stretch:normal;font-size:medium;line-height:normal;font-family:sans-serif;text-indent:0;text-align:start;text-decoration:none;text-decoration-line:none;text-decoration-style:solid;text-decoration-color:#000000;letter-spacing:normal;word-spacing:normal;text-transform:none;direction:ltr;block-progression:tb;writing-mode:lr-tb;baseline-shift:baseline;text-anchor:start;white-space:normal;clip-rule:nonzero;display:inline;overflow:visible;visibility:visible;opacity:1;isolation:auto;mix-blend-mode:normal;color-interpolation:sRGB;color-interpolation-filters:linearRGB;solid-color:#000000;solid-opacity:1;fill:#a6a6a6;fill-opacity:1;fill-rule:nonzero;stroke:none;stroke-width:10;stroke-linecap:round;stroke-linejoin:round;stroke-miterlimit:4;stroke-dasharray:none;stroke-dashoffset:0;stroke-opacity:1;color-rendering:auto;image-rendering:auto;shape-rendering:auto;text-rendering:auto;enable-background:accumulate"
       d="m 115.09394,910.42835 c -5.92394,0 -10.61477,2.21326 -14.40816,3.98438 -3.793389,1.77112 -6.683341,3.04689 -9.605442,3.04689 -4.099725,0 -7.585479,-1.28222 -11.644499,-2.88283 -4.059019,-1.6006 -8.709171,-3.57813 -14.466756,-3.57813 a 5.0004859,5.0005097 0 1 0 0,10.00002 c 3.408427,0 6.667061,1.25159 10.798798,2.88087 4.131736,1.62928 9.120514,3.58009 15.312457,3.58009 5.654292,0 10.101132,-2.24064 13.835902,-3.98439 3.73476,-1.74375 6.76292,-3.04688 10.1777,-3.04688 a 5.0004859,5.0005097 0 1 0 0,-10.00002 z"
       id="path4175"
       inkscape:connector-curvature="0" />
    <path
       style="color:#000000;font-style:normal;font-variant:normal;font-weight:normal;font-stretch:normal;font-size:medium;line-height:normal;font-family:sans-serif;text-indent:0;text-align:start;text-decoration:none;text-decoration-line:none;text-decoration-style:solid;text-decoration-color:#000000;letter-spacing:normal;word-spacing:normal;text-transform:none;direction:ltr;block-progression:tb;writing-mode:lr-tb;baseline-shift:baseline;text-anchor:start;white-space:normal;clip-rule:nonzero;display:inline;overflow:visible;visibility:visible;opacity:1;isolation:auto;mix-blend-mode:normal;color-interpolation:sRGB;color-interpolation-filters:linearRGB;solid-color:#000000;solid-opacity:1;fill:#000000;fill-opacity:1;fill-rule:nonzero;stroke:none;stroke-width:10;stroke-linecap:round;stroke-linejoin:round;stroke-miterlimit:4;stroke-dasharray:none;stroke-dashoffset:0;stroke-opacity:1;color-rendering:auto;image-rendering:auto;shape-rendering:auto;text-rendering:auto;enable-background:accumulate"
       d="m 111.64668,893.49472 c -4.50975,0.20081 -8.53194,1.22864 -11.808555,3.40626 -2.373009,1.57708 -4.776353,2.59509 -6.603496,3.12305 -0.913572,0.26398 -1.687095,0.40326 -2.150385,0.44922 -0.110545,0.011 -0.129641,-0.003 -0.205078,-0.01 -0.04951,-0.0408 -0.833654,-0.36466 -2.123041,-0.90429 -1.512357,-0.63295 -3.525855,-1.43542 -5.888654,-2.22657 -4.7256,-1.58228 -10.850677,-3.14844 -17.456983,-3.14844 -12.980783,0 -27.064348,5.38747 -32.140535,18.20707 -4.86245,12.27987 -3.585427,29.14145 -0.66406,38.52546 2.600305,8.35269 7.022821,18.31366 6.783184,29.30279 -0.297111,13.62464 3.751156,31.14593 11.185516,41.45713 7.233317,10.0324 16.93976,11.0175 22.456967,8.2676 a 5.0004859,5.0005097 0 0 0 0.002,0 c 2.361527,-1.1772 4.778002,-3.4143 6.169905,-6.3808 1.391903,-2.9666 2.07953,-6.4948 2.509759,-11.3555 0.872855,-9.8618 -0.190345,-16.11048 3.242178,-21.34388 1.022035,-1.55824 2.493128,-1.81984 4.951158,-1.53711 1.229015,0.14137 2.506191,0.50323 3.408193,0.86524 0.902003,0.36201 1.721864,1.39838 0.603515,0.0606 2.076491,2.48402 1.992771,1.56704 2.513665,2.58984 0.520893,1.02281 1.430584,4.01752 1.177735,10.94921 -0.289433,7.9347 0.690498,14.2014 3.179672,19.0313 2.48917,4.8299 7.2246,8.1836 12.32809,8.1836 4.98963,0 9.31947,-2.3167 12.55661,-5.3555 3.23713,-3.0387 5.63925,-6.8168 7.57615,-10.6601 3.87379,-7.6867 5.85616,-15.7415 6.58592,-19.08795 0.92966,-4.26313 0.72064,-9.22528 0.7539,-14.29886 0.0333,-5.07358 0.3282,-10.16894 1.02538,-12.42776 2.04704,-6.63212 7.99982,-22.36538 8.30663,-35.211 0.13664,-5.72111 0.20869,-11.78111 -1.50585,-17.78325 -1.71456,-6.00213 -5.50225,-11.86363 -12.11521,-16.10159 -6.47298,-4.14825 -13.58248,-6.10257 -19.99213,-6.52345 -1.60241,-0.10522 -3.15885,-0.12943 -4.6621,-0.0625 z m 4.00781,10.04104 c 4.84322,0.31802 10.40268,1.85649 15.24996,4.9629 4.70729,3.01671 6.71356,6.2907 7.89646,10.43166 1.18289,4.14096 1.25593,9.23299 1.12304,14.79691 -0.23226,9.72442 -5.59975,25.16024 -7.86522,32.50006 -1.45904,4.72714 -1.43462,10.10868 -1.46874,15.31253 -0.0341,5.20384 -0.1074,10.31764 -0.52539,12.2344 -0.6179,2.83353 -2.54275,10.36438 -5.74412,16.71688 -1.60069,3.1762 -3.53048,6.0295 -5.49022,7.8691 -1.95974,1.8397 -3.69472,2.6465 -5.71287,2.6465 -1.36522,0 -2.15326,-0.2737 -3.43749,-2.7656 -1.28425,-2.4919 -2.32581,-7.2404 -2.07617,-14.0841 0.28621,-7.8462 -0.55704,-12.51009 -2.25976,-15.85349 -1.70273,-3.34342 -4.48078,-5.33479 -3.75194,-4.4629 -1.792175,-2.14392 -2.860502,-2.25054 -4.552725,-2.9297 -1.692221,-0.67916 -3.715346,-1.25591 -5.990217,-1.51758 -4.549744,-0.52333 -10.895056,0.55862 -14.455038,5.98634 -5.731481,8.73851 -4.099423,17.53593 -4.843736,25.94543 -0.378355,4.2746 -1.037417,6.792 -1.599604,7.9902 -0.562189,1.1982 -0.707238,1.2446 -1.580075,1.6797 -0.95152,0.4743 -4.71966,1.9978 -9.884737,-5.166 -4.964007,-6.885 -9.540747,-24.29584 -9.298802,-35.39075 0.299417,-13.73045 -4.981176,-25.26282 -7.232402,-32.4942 -1.930162,-6.20007 -2.809382,-23.73051 0.414061,-31.87116 3.009738,-7.6009 12.642949,-11.88869 22.841733,-11.88869 4.983478,0 10.179703,1.25754 14.28121,2.63087 2.050753,0.68665 3.828396,1.39259 5.205063,1.96875 1.376667,0.57616 1.923316,0.90349 3.195304,1.32617 1.70588,0.56685 2.748809,0.43643 3.978504,0.31445 1.229695,-0.12198 2.528319,-0.38522 3.939443,-0.79297 2.822246,-0.81549 6.076138,-2.21776 9.363258,-4.40235 1.2913,-0.85819 5.43799,-2.01138 10.28122,-1.69336 z"
       id="path4177"
       inkscape:connector-curvature="0" />
  </g>
</svg>
